<svg xmlns="http://www.w3.org/2000/svg" width="26" height="26" viewBox="0 0 26 26">
  <metadata><?xpacket begin="﻿" id="W5M0MpCehiHzreSzNTczkc9d"?>
<x:xmpmeta xmlns:x="adobe:ns:meta/" x:xmptk="Adobe XMP Core 5.6-c142 79.160924, 2017/07/13-01:06:39        ">
   <rdf:RDF xmlns:rdf="http://www.w3.org/1999/02/22-rdf-syntax-ns#">
      <rdf:Description rdf:about=""/>
   </rdf:RDF>
</x:xmpmeta>
                                                                                                    
                                                                                                    
                                                                                                    
                                                                                                    
                                                                                                    
                                                                                                    
                                                                                                    
                                                                                                    
                                                                                                    
                                                                                                    
                                                                                                    
                                                                                                    
                                                                                                    
                                                                                                    
                                                                                                    
                                                                                                    
                                                                                                    
                                                                                                    
                                                                                                    
                                                                                                    
                           
<?xpacket end="w"?></metadata>
<defs>
    <style>
      .cls-1 {
        fill: #0a122a;
        fill-rule: evenodd;
        opacity: 0.5;
      }
    </style>
  </defs>
  <path id="inst.svg" class="cls-1" d="M1253.64,340a7.675,7.675,0,0,0-7.64,7.645v10.71a7.671,7.671,0,0,0,7.64,7.645h10.72a7.675,7.675,0,0,0,7.64-7.645v-10.71a7.672,7.672,0,0,0-7.64-7.645h-10.72Zm0,2.364h10.72a5.275,5.275,0,0,1,5.28,5.281v10.71a5.274,5.274,0,0,1-5.28,5.281h-10.72a5.274,5.274,0,0,1-5.28-5.281v-10.71A5.275,5.275,0,0,1,1253.64,342.364Zm12.34,2.584a1.072,1.072,0,1,0,1.07,1.071A1.063,1.063,0,0,0,1265.98,344.948Zm-6.98.961a7.091,7.091,0,1,0,7.09,7.091A7.11,7.11,0,0,0,1259,345.909Zm0,2.364a4.727,4.727,0,1,1-4.73,4.727A4.707,4.707,0,0,1,1259,348.273Z" transform="translate(-1246 -340)"/>
</svg>
